<?xml version="1.0" encoding="UTF-8" standalone="no"?>
<!-- Created with Inkscape (http://www.inkscape.org/) -->

<svg
   width="230mm"
   height="230mm"
   viewBox="0 0 230.00001 230.00001"
   version="1.1"
   id="svg1"
   xml:space="preserve"
   inkscape:version="1.4.2 (ebf0e940d0, 2025-05-08)"
   sodipodi:docname="hermes-icon.svg"
   xmlns:inkscape="http://www.inkscape.org/namespaces/inkscape"
   xmlns:sodipodi="http://sodipodi.sourceforge.net/DTD/sodipodi-0.dtd"
   xmlns="http://www.w3.org/2000/svg"
   xmlns:svg="http://www.w3.org/2000/svg"><sodipodi:namedview
     id="namedview1"
     pagecolor="#ffffff"
     bordercolor="#000000"
     borderopacity="0.25"
     inkscape:showpageshadow="2"
     inkscape:pageopacity="0.0"
     inkscape:pagecheckerboard="0"
     inkscape:deskcolor="#d1d1d1"
     inkscape:document-units="mm"
     inkscape:zoom="0.58264757"
     inkscape:cx="-64.361377"
     inkscape:cy="162.19067"
     inkscape:window-width="2536"
     inkscape:window-height="1390"
     inkscape:window-x="0"
     inkscape:window-y="0"
     inkscape:window-maximized="1"
     inkscape:current-layer="layer1" /><defs
     id="defs1" /><g
     inkscape:label="Layer 1"
     inkscape:groupmode="layer"
     id="layer1"
     transform="translate(21.192661)"><path
       id="path1"
       style="fill:#ffffff;stroke-width:1.07559"
       d="m 69.505465,39.662673 c -5.765855,-0.524577 -85.203642,-0.403268 -86.23821,0.13173 -5.24855,2.714135 4.371889,16.187206 17.17504419,24.05341 2.37542071,1.459448 2.67324101,1.749028 4.01252361,3.90135 5.2919495,8.504545 13.7798662,14.666702 23.0034442,16.700375 0.43043,0.0949 0.784901,0.330374 0.787052,0.523034 0.03334,2.85095 5.647691,10.378716 9.793114,13.130292 l 1.545205,1.025501 -0.860419,2.346145 c -4.983492,13.58843 -5.56516,31.13011 -1.463492,44.1499 l 0.707567,2.24665 -3.294943,3.30273 c -8.586915,8.60733 -12.973518,16.59803 -14.122453,25.72589 -0.969742,7.70433 6.649506,8.42409 19.876928,1.87813 0.255969,-0.12667 0.50684,-0.24981 0.750923,-0.36906 2.485927,-1.89404 22.953441,-17.25843 46.636658,-28.01312 5.285346,-2.40012 11.483255,-5.14757 18.091053,-7.99168 2.17051,-0.93423 4.38555,-1.87899 6.62657,-2.82527 23.5639,-9.94999 50.03958,-20.07647 58.68198,-20.07647 6.6607,0.28875 13.22905,-1.31552 19.80856,-2.29779 11.09088,-1.65779 12.7082,-2.05824 13.93069,-3.45058 4.25362,-4.8446 -10.7817,-15.702615 -25.17173,-18.178324 -5.21643,-0.89744 -4.64253,-0.596157 -6.15301,-3.224342 C 161.40473,71.081857 139.03877,57.276681 113.3313,55.134115 110.9779,54.93797 110.87379,54.898302 109.48943,53.656726 100.59611,45.680662 88.282332,41.371023 69.505465,39.662673 Z m -71.8573032,9.576341 36.0214802,0.186758 c 39.029338,0.202254 41.003821,0.279755 48.486448,1.900928 14.797268,3.205949 23.88102,12.375803 25.90821,26.153325 1.49733,10.176347 5.45379,15.842811 13.26425,18.9976 7.03494,2.841539 8.66043,-4.281904 1.85368,-8.123402 -3.93063,-2.21831 -5.33522,-5.054025 -6.29419,-12.707316 -0.41351,-3.300095 -1.24118,-7.93382 -1.74585,-9.771993 -0.1806,-0.657821 -0.16268,-0.664006 1.49351,-0.474121 18.08323,2.073266 36.21396,13.156352 45.77679,27.981996 0.72766,1.128101 1.28273,2.086212 1.24839,2.153823 l -5.6e-4,5.6e-4 -5.6e-4,5.48e-4 -5.4e-4,5.59e-4 -5.6e-4,5.6e-4 c -0.054,0.0398 -1.44304,0.360441 -3.08651,0.712568 -34.51765,7.395733 -79.799323,25.757233 -111.775131,45.323803 -2.291987,1.4025 -2.220288,1.42274 -2.889187,-0.82986 -3.286306,-11.06692 -2.805711,-23.01008 1.370668,-34.07442 1.496082,-3.96349 1.418898,-3.89323 3.729052,-3.39943 2.3313,0.49836 37.31021,0.59338 39.064628,0.10616 3.33758,-0.92687 4.032949,-4.784025 1.468493,-8.146204 C 90.17022,93.434654 90.993402,93.510139 71.070675,93.351651 50.919482,93.191345 50.737923,93.176157 46.836626,91.323439 c -2.634703,-1.251213 -6.358667,-4.716447 -6.358667,-5.917333 0,-0.154563 9.479149,-0.177347 23.569291,-0.05613 12.962891,0.111538 23.910318,0.117098 24.327981,0.01223 3.503307,-0.879274 0.892084,-5.652578 -4.577789,-8.36853 L 81.085565,75.646901 56.868736,75.471815 C 31.369943,75.287556 31.212294,75.279383 27.11255,73.90494 24.16085,72.915375 22.240458,71.756345 19.906254,69.554482 l -1.988198,-1.875916 28.311603,-0.142292 c 31.088521,-0.15624 29.252057,-0.03701 29.252057,-1.898705 0,-2.11104 -2.327051,-4.535327 -6.112432,-6.367553 -3.7491,-1.814672 -2.801279,-1.75403 -31.025695,-1.973741 C 21.235469,57.163095 12.002081,56.988871 11.136414,56.782691 6.2820794,55.626549 0.60719809,52.596464 -1.7826678,49.884878 Z M 170.81715,105.22523 c 6.05303,-0.38206 19.53912,1.94591 14.76054,2.54792 -35.06769,4.41791 -85.49901,23.6396 -131.155138,49.98941 -9.887185,5.70624 -18.899065,10.84856 -19.980313,11.40056 -1.660476,0.84773 -1.650548,0.87627 -0.475788,-1.34232 2.885498,-5.44946 7.494254,-9.8866 15.61818,-15.03679 35.864187,-22.73627 94.903319,-45.89694 121.232519,-47.55878 z"
       sodipodi:nodetypes="ssssscccsccssscssssssscsssccssssssssccccccssscscssssccccsccsssssccscssscs" /></g></svg>
